<svg width="121" height="71" viewBox="0 0 121 71" fill="none" xmlns="http://www.w3.org/2000/svg">
<path d="M31.216 70.536C25.264 70.536 19.984 69.16 15.376 66.408C10.832 63.656 7.248 59.656 4.624 54.408C2.064 49.16 0.784 42.824 0.784 35.4C0.784 27.976 2.064 21.64 4.624 16.392C7.248 11.144 10.832 7.144 15.376 4.392C19.984 1.64 25.264 0.263998 31.216 0.263998C37.168 0.263998 42.416 1.64 46.96 4.392C51.568 7.144 55.152 11.144 57.712 16.392C60.336 21.64 61.648 27.976 61.648 35.4C61.648 42.824 60.336 49.16 57.712 54.408C55.152 59.656 51.568 63.656 46.96 66.408C42.416 69.16 37.168 70.536 31.216 70.536ZM31.216 52.392C32.688 52.392 34 51.88 35.152 50.856C36.304 49.832 37.2 48.072 37.84 45.576C38.544 43.08 38.896 39.688 38.896 35.4C38.896 31.048 38.544 27.656 37.84 25.224C37.2 22.728 36.304 20.968 35.152 19.944C34 18.92 32.688 18.408 31.216 18.408C29.744 18.408 28.432 18.92 27.28 19.944C26.128 20.968 25.2 22.728 24.496 25.224C23.856 27.656 23.536 31.048 23.536 35.4C23.536 39.688 23.856 43.08 24.496 45.576C25.2 48.072 26.128 49.832 27.28 50.856C28.432 51.88 29.744 52.392 31.216 52.392ZM66.2193 69V55.08L90.5073 32.616C92.0433 31.144 93.1633 29.864 93.8673 28.776C94.6353 27.688 95.1473 26.728 95.4033 25.896C95.6593 25 95.7873 24.168 95.7873 23.4C95.7873 21.736 95.2433 20.456 94.1553 19.56C93.0673 18.6 91.4353 18.12 89.2593 18.12C87.2753 18.12 85.3873 18.664 83.5953 19.752C81.8033 20.776 80.3953 22.312 79.3713 24.36L62.2832 15.816C64.7153 11.208 68.3633 7.464 73.2273 4.584C78.0913 1.704 84.1393 0.263998 91.3713 0.263998C96.6833 0.263998 101.387 1.128 105.483 2.856C109.579 4.584 112.779 7.016 115.083 10.152C117.387 13.288 118.539 17 118.539 21.288C118.539 23.464 118.251 25.64 117.675 27.816C117.163 29.992 116.075 32.296 114.411 34.728C112.747 37.096 110.283 39.752 107.019 42.696L88.7793 59.304L85.2273 51.432H120.075V69H66.2193Z" fill="#E1ECF2" fill-opacity="0.5"/>
</svg>
