<svg width="120" height="71" viewBox="0 0 120 71" fill="none" xmlns="http://www.w3.org/2000/svg">
<path d="M30.966 70.536C25.014 70.536 19.734 69.16 15.126 66.408C10.582 63.656 6.998 59.656 4.374 54.408C1.814 49.16 0.534 42.824 0.534 35.4C0.534 27.976 1.814 21.64 4.374 16.392C6.998 11.144 10.582 7.144 15.126 4.392C19.734 1.64 25.014 0.263998 30.966 0.263998C36.918 0.263998 42.166 1.64 46.71 4.392C51.318 7.144 54.902 11.144 57.462 16.392C60.086 21.64 61.398 27.976 61.398 35.4C61.398 42.824 60.086 49.16 57.462 54.408C54.902 59.656 51.318 63.656 46.71 66.408C42.166 69.16 36.918 70.536 30.966 70.536ZM30.966 52.392C32.438 52.392 33.75 51.88 34.902 50.856C36.054 49.832 36.95 48.072 37.59 45.576C38.294 43.08 38.646 39.688 38.646 35.4C38.646 31.048 38.294 27.656 37.59 25.224C36.95 22.728 36.054 20.968 34.902 19.944C33.75 18.92 32.438 18.408 30.966 18.408C29.494 18.408 28.182 18.92 27.03 19.944C25.878 20.968 24.95 22.728 24.246 25.224C23.606 27.656 23.286 31.048 23.286 35.4C23.286 39.688 23.606 43.08 24.246 45.576C24.95 48.072 25.878 49.832 27.03 50.856C28.182 51.88 29.494 52.392 30.966 52.392ZM89.2013 70.536C84.5933 70.536 79.9213 70.024 75.1853 69C70.4493 67.976 66.2893 66.472 62.7052 64.488L70.3853 47.784C73.2653 49.448 76.2733 50.696 79.4093 51.528C82.6093 52.296 85.6173 52.68 88.4333 52.68C90.9933 52.68 93.0733 52.264 94.6733 51.432C96.3373 50.536 97.1693 49.224 97.1693 47.496C97.1693 46.024 96.5613 44.904 95.3453 44.136C94.1293 43.304 92.0813 42.888 89.2013 42.888H80.2733V28.968L97.6493 11.304L99.6653 18.888H66.1613V1.8H116.273V15.72L98.8973 33.384L88.0493 27.24H94.0013C102.449 27.24 108.881 29.128 113.297 32.904C117.713 36.68 119.921 41.544 119.921 47.496C119.921 51.336 118.833 55.016 116.657 58.536C114.545 62.056 111.217 64.936 106.673 67.176C102.193 69.416 96.3693 70.536 89.2013 70.536Z" fill="#EFF5F8"/>
</svg>
