<svg width="98" height="71" viewBox="0 0 98 71" fill="none" xmlns="http://www.w3.org/2000/svg">
<path d="M30.8879 70.536C24.9359 70.536 19.6559 69.16 15.0479 66.408C10.5039 63.656 6.91988 59.656 4.29588 54.408C1.73588 49.16 0.455875 42.824 0.455875 35.4C0.455875 27.976 1.73588 21.64 4.29588 16.392C6.91988 11.144 10.5039 7.144 15.0479 4.392C19.6559 1.64 24.9359 0.263998 30.8879 0.263998C36.8399 0.263998 42.0879 1.64 46.6319 4.392C51.2399 7.144 54.8239 11.144 57.3839 16.392C60.0079 21.64 61.3199 27.976 61.3199 35.4C61.3199 42.824 60.0079 49.16 57.3839 54.408C54.8239 59.656 51.2399 63.656 46.6319 66.408C42.0879 69.16 36.8399 70.536 30.8879 70.536ZM30.8879 52.392C32.3599 52.392 33.6719 51.88 34.8239 50.856C35.9759 49.832 36.8719 48.072 37.5119 45.576C38.2159 43.08 38.5679 39.688 38.5679 35.4C38.5679 31.048 38.2159 27.656 37.5119 25.224C36.8719 22.728 35.9759 20.968 34.8239 19.944C33.6719 18.92 32.3599 18.408 30.8879 18.408C29.4159 18.408 28.1039 18.92 26.9519 19.944C25.7999 20.968 24.8719 22.728 24.1679 25.224C23.5279 27.656 23.2079 31.048 23.2079 35.4C23.2079 39.688 23.5279 43.08 24.1679 45.576C24.8719 48.072 25.7999 49.832 26.9519 50.856C28.1039 51.88 29.4159 52.392 30.8879 52.392ZM75.2031 69V9.672L84.8991 18.888H63.6831V1.8H97.8591V69H75.2031Z" fill="#EFF5F8"/>
</svg>
