<svg width="19" height="13" viewBox="0 0 19 13" fill="none" xmlns="http://www.w3.org/2000/svg">
<path d="M5.296 12.096C4.432 12.096 3.664 11.872 2.992 11.424C2.32 10.9653 1.792 10.3147 1.408 9.472C1.024 8.61867 0.832 7.59467 0.832 6.4C0.832 5.20533 1.024 4.18667 1.408 3.344C1.792 2.49067 2.32 1.84 2.992 1.392C3.664 0.933333 4.432 0.704 5.296 0.704C6.16 0.704 6.928 0.933333 7.6 1.392C8.272 1.84 8.8 2.49067 9.184 3.344C9.57867 4.18667 9.776 5.20533 9.776 6.4C9.776 7.59467 9.57867 8.61867 9.184 9.472C8.8 10.3147 8.272 10.9653 7.6 11.424C6.928 11.872 6.16 12.096 5.296 12.096ZM5.296 11.04C5.95733 11.04 6.53333 10.864 7.024 10.512C7.51467 10.1493 7.89867 9.62667 8.176 8.944C8.45333 8.25067 8.592 7.40267 8.592 6.4C8.592 5.39733 8.45333 4.55467 8.176 3.872C7.89867 3.17867 7.51467 2.656 7.024 2.304C6.53333 1.94133 5.95733 1.76 5.296 1.76C4.656 1.76 4.08533 1.94133 3.584 2.304C3.08267 2.656 2.69333 3.17867 2.416 3.872C2.13867 4.55467 2 5.39733 2 6.4C2 7.40267 2.13867 8.25067 2.416 8.944C2.69333 9.62667 3.08267 10.1493 3.584 10.512C4.08533 10.864 4.656 11.04 5.296 11.04ZM14.6135 12.096C13.8028 12.096 13.0348 11.968 12.3095 11.712C11.5948 11.4453 11.0188 11.0933 10.5815 10.656L11.1415 9.744C11.5042 10.1173 11.9895 10.4267 12.5975 10.672C13.2162 10.9173 13.8882 11.04 14.6135 11.04C15.5415 11.04 16.2508 10.8373 16.7415 10.432C17.2428 10.0267 17.4935 9.48267 17.4935 8.8C17.4935 8.11733 17.2482 7.57333 16.7575 7.168C16.2775 6.76267 15.5148 6.56 14.4695 6.56H13.6695V5.712L17.1255 1.376L17.2855 1.824H11.0455V0.799999H18.2455V1.616L14.7895 5.952L14.2295 5.584H14.6615C16.0055 5.584 17.0082 5.88267 17.6695 6.48C18.3415 7.07733 18.6775 7.84533 18.6775 8.784C18.6775 9.41333 18.5282 9.97867 18.2295 10.48C17.9308 10.9813 17.4775 11.376 16.8695 11.664C16.2722 11.952 15.5202 12.096 14.6135 12.096Z" fill="#333333"/>
</svg>
