<svg width="20" height="13" viewBox="0 0 20 13" fill="none" xmlns="http://www.w3.org/2000/svg">
<path d="M5.296 12.096C4.432 12.096 3.664 11.872 2.992 11.424C2.32 10.9653 1.792 10.3147 1.408 9.472C1.024 8.61867 0.832 7.59467 0.832 6.4C0.832 5.20533 1.024 4.18667 1.408 3.344C1.792 2.49067 2.32 1.84 2.992 1.392C3.664 0.933333 4.432 0.704 5.296 0.704C6.16 0.704 6.928 0.933333 7.6 1.392C8.272 1.84 8.8 2.49067 9.184 3.344C9.57867 4.18667 9.776 5.20533 9.776 6.4C9.776 7.59467 9.57867 8.61867 9.184 9.472C8.8 10.3147 8.272 10.9653 7.6 11.424C6.928 11.872 6.16 12.096 5.296 12.096ZM5.296 11.04C5.95733 11.04 6.53333 10.864 7.024 10.512C7.51467 10.1493 7.89867 9.62667 8.176 8.944C8.45333 8.25067 8.592 7.40267 8.592 6.4C8.592 5.39733 8.45333 4.55467 8.176 3.872C7.89867 3.17867 7.51467 2.656 7.024 2.304C6.53333 1.94133 5.95733 1.76 5.296 1.76C4.656 1.76 4.08533 1.94133 3.584 2.304C3.08267 2.656 2.69333 3.17867 2.416 3.872C2.13867 4.55467 2 5.39733 2 6.4C2 7.40267 2.13867 8.25067 2.416 8.944C2.69333 9.62667 3.08267 10.1493 3.584 10.512C4.08533 10.864 4.656 11.04 5.296 11.04ZM11.2178 12V11.184L15.8738 6.624C16.3004 6.208 16.6204 5.84533 16.8338 5.536C17.0471 5.216 17.1911 4.91733 17.2658 4.64C17.3404 4.36267 17.3778 4.10133 17.3778 3.856C17.3778 3.20533 17.1538 2.69333 16.7058 2.32C16.2684 1.94667 15.6178 1.76 14.7538 1.76C14.0924 1.76 13.5058 1.86133 12.9938 2.064C12.4924 2.26667 12.0604 2.58133 11.6978 3.008L10.8818 2.304C11.3191 1.792 11.8791 1.39733 12.5618 1.12C13.2444 0.842666 14.0071 0.704 14.8498 0.704C15.6071 0.704 16.2631 0.826666 16.8178 1.072C17.3724 1.30667 17.7991 1.65333 18.0978 2.112C18.4071 2.57067 18.5618 3.10933 18.5618 3.728C18.5618 4.09067 18.5084 4.448 18.4018 4.8C18.3058 5.152 18.1244 5.52533 17.8578 5.92C17.6018 6.304 17.2231 6.74133 16.7218 7.232L12.4498 11.424L12.1298 10.976H19.0738V12H11.2178Z" fill="#333333"/>
</svg>
