<svg width="21" height="13" viewBox="0 0 21 13" fill="none" xmlns="http://www.w3.org/2000/svg">
<path d="M5.296 12.096C4.432 12.096 3.65867 11.8667 2.976 11.408C2.304 10.9493 1.776 10.2933 1.392 9.44C1.01867 8.576 0.832 7.56267 0.832 6.4C0.832 5.23733 1.01867 4.22933 1.392 3.376C1.776 2.512 2.304 1.85067 2.976 1.392C3.65867 0.933333 4.432 0.704 5.296 0.704C6.16 0.704 6.928 0.933333 7.6 1.392C8.28267 1.85067 8.816 2.512 9.2 3.376C9.584 4.22933 9.776 5.23733 9.776 6.4C9.776 7.56267 9.584 8.576 9.2 9.44C8.816 10.2933 8.28267 10.9493 7.6 11.408C6.928 11.8667 6.16 12.096 5.296 12.096ZM5.296 11.04C5.94667 11.04 6.51733 10.8587 7.008 10.496C7.50933 10.1333 7.89867 9.60533 8.176 8.912C8.45333 8.21867 8.592 7.38133 8.592 6.4C8.592 5.41867 8.45333 4.58133 8.176 3.888C7.89867 3.19467 7.50933 2.66667 7.008 2.304C6.51733 1.94133 5.94667 1.76 5.296 1.76C4.64533 1.76 4.06933 1.94133 3.568 2.304C3.07733 2.66667 2.69333 3.19467 2.416 3.888C2.13867 4.58133 2 5.41867 2 6.4C2 7.38133 2.13867 8.21867 2.416 8.912C2.69333 9.60533 3.07733 10.1333 3.568 10.496C4.06933 10.8587 4.64533 11.04 5.296 11.04ZM20.9458 9.056H18.7058V12H17.5538V9.056H11.2338V8.224L17.1698 0.799999H18.4498L12.7218 8.032H17.5858V5.44H18.7058V8.032H20.9458V9.056Z" fill="#333333"/>
</svg>
