<svg width="15" height="13" viewBox="0 0 15 13" fill="none" xmlns="http://www.w3.org/2000/svg">
<path d="M5.296 12.096C4.432 12.096 3.664 11.872 2.992 11.424C2.32 10.9653 1.792 10.3147 1.408 9.472C1.024 8.61867 0.832 7.59467 0.832 6.4C0.832 5.20533 1.024 4.18667 1.408 3.344C1.792 2.49067 2.32 1.84 2.992 1.392C3.664 0.933333 4.432 0.704 5.296 0.704C6.16 0.704 6.928 0.933333 7.6 1.392C8.272 1.84 8.8 2.49067 9.184 3.344C9.57867 4.18667 9.776 5.20533 9.776 6.4C9.776 7.59467 9.57867 8.61867 9.184 9.472C8.8 10.3147 8.272 10.9653 7.6 11.424C6.928 11.872 6.16 12.096 5.296 12.096ZM5.296 11.04C5.95733 11.04 6.53333 10.864 7.024 10.512C7.51467 10.1493 7.89867 9.62667 8.176 8.944C8.45333 8.25067 8.592 7.40267 8.592 6.4C8.592 5.39733 8.45333 4.55467 8.176 3.872C7.89867 3.17867 7.51467 2.656 7.024 2.304C6.53333 1.94133 5.95733 1.76 5.296 1.76C4.656 1.76 4.08533 1.94133 3.584 2.304C3.08267 2.656 2.69333 3.17867 2.416 3.872C2.13867 4.55467 2 5.39733 2 6.4C2 7.40267 2.13867 8.25067 2.416 8.944C2.69333 9.62667 3.08267 10.1493 3.584 10.512C4.08533 10.864 4.656 11.04 5.296 11.04ZM13.3778 12V1.28L13.8898 1.824H10.7378V0.799999H14.5298V12H13.3778Z" fill="#333333"/>
</svg>
